{"title":"Taken 2 2012 Unrated Extended Cut 1080p BluRay DTS x264 - alrmot","uid":8006945,"size":6007262447,"categoryP":"video","categoryS":"hd___movies","magnet":"?xt=urn:btih:ebe76366bbd9afb8f7983724c89ccb9f9731da08&amp;dn=Taken+2+2012+Unrated+Extended+Cut+1080p+BluRay+DTS+x264+-+alrmot&amp;tr=udp%3A%2F%2Ftracker.openbittorrent.com%3A80&amp;tr=udp%3A%2F%2Fopen.demonii.com%3A1337&amp;tr=udp%3A%2F%2Ftracker.coppersurfer.tk%3A6969&amp;tr=udp%3A%2F%2Fexodus.desync.com%3A6969","seeders":0,"leechers":0,"uploader":".alrmothe","files":38,"time":1357912850,"description":"********************************************************************************\n \nTaken 2  2012  UNRATED Extended Cut 1080p x264 - alrmothe\n\n********************************************************************************\n\nTiTLE: Taken 2\nYEAR:2012\nGENRE : Action | Crime | Thriller \nimdb URL :http://www.imdb.com/title/tt1397280/\nFormat: Matroska\nFormat version: Version 4 / Version 2\nFile size: 5.57 GiB\nDuration: 1h 38mn\nOverall bit rate: 8 117 Kbps\nEncoded date: UTC 2010-02-22 21:41:31\nSub: English, English (oreign Parts), Arabic, swedish, Brazillian portuguese\nRomanian, malay, indonesian, vietnamese,Danish\n****************************\n\nVideo\nFormat: AVC\nFormat/Info : Advanced Video Codec\nFormat profile: &lt;a class=&quot;__cf_email__&quot; href=&quot;/cdn-cgi/l/email-protection&quot; data-cfemail=&quot;2169484649616d140f11&quot;&gt;[email&amp;#160;protected]&lt;/a&gt;&lt;script cf-hash='f9e31' type=&quot;text/javascript&quot;&gt;\n/* &lt;![CDATA[ */!function(){try{var t=&quot;currentScript&quot;in document?document.currentScript:function(){for(var t=document.getElementsByTagName(&quot;script&quot;),e=t.length;e--;)if(t[e].getAttribute(&quot;cf-hash&quot;))return t[e]}();if(t&amp;&amp;t.previousSibling){var e,r,n,i,c=t.previousSibling,a=c.getAttribute(&quot;data-cfemail&quot;);if(a){for(e=&quot;&quot;,r=parseInt(a.substr(0,2),16),n=2;a.length-n;n+=2)i=parseInt(a.substr(n,2),16)^r,e+=String.fromCharCode(i);e=document.createTextNode(e),c.parentNode.replaceChild(e,c)}}}catch(u){}}();/* ]]&gt; */&lt;/script&gt;\nFormat settings, CABAC: Yes\nFormat settings, ReFrames: 5 frames\nMuxing mode: Header stripping\nCodec ID: V_MPEG4/ISO/AVC\nBit rate: 6 614 Kbps\nWidth: 1 920 pixels\nHeight: 800 pixels\nDisplay aspect ratio: 2.40:1\nFrame rate mode: Constant\nFrame rate: 23.976 fps\nColor space: YUV\nChroma subsampling: 4:2:0\nBit depth: 8 bits\nScan type: Progressive\nBits/(Pixel*Frame): 0.180\nStream size: 4.43 GiB(79%)\nTitle: Taken 2  2012  UNRATED Extended Cut 1080p x264 - alrmothe\n\n\nAudio\nFormat: DTS\nFormat/Info : Digital Theater Systems\nMode: 16\nFormat settings, Endianness: Big\nMuxing mode : Header stripping\nCodec ID: A_DTS\nBit rate mode: Constant\nBit rate : 1 509 Kbps\nChannel(s): 6 channels\nChannel positions: Front: L C R, Side: L R, LFE\nSampling rate : 48.0 KHz\nBit depth: 24 bits\nCompression mode: Lossy\nStream size: 1.04 GiB (19%)\nLanguage: English\n******************************************************************************\n\nScreenshots\n &lt;a href=&quot;\nhttp://img267.imageshack.us/img267/4015/48699855.png&quot; rel=&quot;nofollow&quot; target=&quot;_NEW&quot;&gt;\nhttp://img267.imageshack.us/img267/4015/48699855.png&lt;/a&gt; &lt;a href=&quot;\nhttp://img543.imageshack.us/img543/1417/50002212.png&quot; rel=&quot;nofollow&quot; target=&quot;_NEW&quot;&gt;\nhttp://img543.imageshack.us/img543/1417/50002212.png&lt;/a&gt; &lt;a href=&quot;\nhttp://img255.imageshack.us/img255/1728/28202617.png&quot; rel=&quot;nofollow&quot; target=&quot;_NEW&quot;&gt;\nhttp://img255.imageshack.us/img255/1728/28202617.png&lt;/a&gt; &lt;a href=&quot;\nhttp://img690.imageshack.us/img690/5605/74939805.png&quot; rel=&quot;nofollow&quot; target=&quot;_NEW&quot;&gt;\nhttp://img690.imageshack.us/img690/5605/74939805.png&lt;/a&gt; &lt;a href=&quot;\nhttp://img9.imageshack.us/img9/8452/35909361.png&quot; rel=&quot;nofollow&quot; target=&quot;_NEW&quot;&gt;\nhttp://img9.imageshack.us/img9/8452/35909361.png&lt;/a&gt; &lt;a href=&quot;\nhttp://img10.imageshack.us/img10/8263/46326411.png&quot; rel=&quot;nofollow&quot; target=&quot;_NEW&quot;&gt;\nhttp://img10.imageshack.us/img10/8263/46326411.png&lt;/a&gt; &lt;a href=&quot;\nhttp://img685.imageshack.us/img685/9015/66825342.png&quot; rel=&quot;nofollow&quot; target=&quot;_NEW&quot;&gt;\nhttp://img685.imageshack.us/img685/9015/66825342.png&lt;/a&gt;\n\nCode:\n\n &lt;a href=&quot;\nhttp://121.14.98.151:9090/announce&quot; rel=&quot;nofollow&quot; target=&quot;_NEW&quot;&gt;\nhttp://121.14.98.151:9090/announce&lt;/a&gt; &lt;a href=&quot;\nhttp://tracker.ex.ua/announce&quot; rel=&quot;nofollow&quot; target=&quot;_NEW&quot;&gt;\nhttp://tracker.ex.ua/announce&lt;/a&gt; &lt;a href=&quot;\nhttp://tracker.torrentbay.to:6969/announce&quot; rel=&quot;nofollow&quot; target=&quot;_NEW&quot;&gt;\nhttp://tracker.torrentbay.to:6969/announce&lt;/a&gt; &lt;a href=&quot;\nhttp://exodus.desync.com:6969/announce&quot; rel=&quot;nofollow&quot; target=&quot;_NEW&quot;&gt;\nhttp://exodus.desync.com:6969/announce&lt;/a&gt; &lt;a href=&quot;\nhttp://94.228.192.98/announce&quot; rel=&quot;nofollow&quot; target=&quot;_NEW&quot;&gt;\nhttp://94.228.192.98/announce&lt;/a&gt;\nudp://tracker.istole.it:80/announce\n\n\n","torrent":{"xt":"urn:btih:ebe76366bbd9afb8f7983724c89ccb9f9731da08","amp;dn":"Taken+2+2012+Unrated+Extended+Cut+1080p+BluRay+DTS+x264+-+alrmot","amp;tr":["udp%3A%2F%2Ftracker.openbittorrent.com%3A80","udp%3A%2F%2Fopen.demonii.com%3A1337","udp%3A%2F%2Ftracker.coppersurfer.tk%3A6969","udp%3A%2F%2Fexodus.desync.com%3A6969"],"infoHash":"ebe76366bbd9afb8f7983724c89ccb9f9731da08","infoHashBuffer":{"type":"Buffer","data":[235,231,99,102,187,217,175,184,247,152,55,36,200,156,203,159,151,49,218,8]},"announce":[],"urlList":[]}}